<svg xmlns="http://www.w3.org/2000/svg" version="1.1" xmlns:xlink="http://www.w3.org/1999/xlink" width="1000" height="1000"><style>
    #light-icon {
      display: inline;
    }
    #dark-icon {
      display: none;
    }

    @media (prefers-color-scheme: dark) {
      #light-icon {
        display: none;
      }
      #dark-icon {
        display: inline;
      }
    }
  </style><g id="light-icon"><svg xmlns="http://www.w3.org/2000/svg" version="1.1" xmlns:xlink="http://www.w3.org/1999/xlink" width="1000" height="1000"><g clip-path="url(#SvgjsClipPath1072)"><rect width="1000" height="1000" fill="#ffffff"></rect><g transform="matrix(1.2152777777777777,0,0,1.2152777777777777,150,188.8888888888889)"><svg xmlns="http://www.w3.org/2000/svg" version="1.1" xmlns:xlink="http://www.w3.org/1999/xlink" width="576" height="512"><svg xmlns="http://www.w3.org/2000/svg" viewBox="0 0 576 512"><!--! Font Awesome Free 7.0.0 by @fontawesome - https://fontawesome.com License - https://fontawesome.com/license/free (Icons: CC BY 4.0, Fonts: SIL OFL 1.1, Code: MIT License) Copyright 2025 Fonticons, Inc. --><path fill="#8A532F" d="M64 64c0-17.7 14.3-32 32-32l352 0c70.7 0 128 57.3 128 128S518.7 288 448 288c0 53-43 96-96 96l-192 0c-53 0-96-43-96-96L64 64zm448 96c0-35.3-28.7-64-64-64l0 128c35.3 0 64-28.7 64-64zM64 448l384 0c17.7 0 32 14.3 32 32s-14.3 32-32 32L64 512c-17.7 0-32-14.3-32-32s14.3-32 32-32z"></path></svg></svg></g></g><defs><clipPath id="SvgjsClipPath1072"><rect width="1000" height="1000" x="0" y="0" rx="250" ry="250"></rect></clipPath></defs></svg></g><g id="dark-icon"><svg xmlns="http://www.w3.org/2000/svg" version="1.1" xmlns:xlink="http://www.w3.org/1999/xlink" width="1000" height="1000"><g clip-path="url(#SvgjsClipPath1073)"><rect width="1000" height="1000" fill="#ffffff"></rect><g transform="matrix(1.2152777777777777,0,0,1.2152777777777777,150,188.8888888888889)"><svg xmlns="http://www.w3.org/2000/svg" version="1.1" xmlns:xlink="http://www.w3.org/1999/xlink" width="576" height="512"><svg xmlns="http://www.w3.org/2000/svg" viewBox="0 0 576 512"><!--! Font Awesome Free 7.0.0 by @fontawesome - https://fontawesome.com License - https://fontawesome.com/license/free (Icons: CC BY 4.0, Fonts: SIL OFL 1.1, Code: MIT License) Copyright 2025 Fonticons, Inc. --><path fill="#8A532F" d="M64 64c0-17.7 14.3-32 32-32l352 0c70.7 0 128 57.3 128 128S518.7 288 448 288c0 53-43 96-96 96l-192 0c-53 0-96-43-96-96L64 64zm448 96c0-35.3-28.7-64-64-64l0 128c35.3 0 64-28.7 64-64zM64 448l384 0c17.7 0 32 14.3 32 32s-14.3 32-32 32L64 512c-17.7 0-32-14.3-32-32s14.3-32 32-32z"></path></svg></svg></g></g><defs><clipPath id="SvgjsClipPath1073"><rect width="1000" height="1000" x="0" y="0" rx="250" ry="250"></rect></clipPath></defs></svg></g></svg>